<?xml version="1.0" standalone="no"?>
<!DOCTYPE svg PUBLIC "-//W3C//DTD SVG 20010904//EN"
 "http://www.w3.org/TR/2001/REC-SVG-20010904/DTD/svg10.dtd">
<svg version="1.0" xmlns="http://www.w3.org/2000/svg"
 width="1920.000000pt" height="1920.000000pt" viewBox="0 0 1920.000000 1920.000000"
 preserveAspectRatio="xMidYMid meet">

<g transform="translate(0.000000,1920.000000) scale(0.100000,-0.100000)"
fill="#000000" stroke="none">
<path d="M2985 16182 c-61 -7 -152 -35 -232 -72 -153 -71 -263 -158 -352 -278
-61 -83 -92 -144 -134 -264 l-32 -93 -3 -4440 c-2 -3277 0 -4456 8 -4500 20
-105 71 -243 114 -309 54 -85 187 -222 264 -275 34 -23 101 -57 150 -76 183
-70 -46 -65 2892 -65 l2650 0 0 -510 0 -510 -617 0 c-630 0 -689 -3 -843 -41
-208 -51 -375 -127 -524 -238 -390 -288 -608 -665 -657 -1133 -20 -189 10
-271 122 -342 24 -15 322 -16 3809 -16 3480 0 3786 1 3809 16 112 71 142 153
122 342 -16 152 -45 276 -93 403 -44 116 -142 308 -175 344 -10 11 -37 45 -60
75 -107 141 -356 350 -504 423 -142 71 -347 134 -504 157 -40 5 -333 10 -687
10 l-618 0 0 510 0 510 2650 0 c2938 0 2709 -5 2892 65 49 19 116 53 150 76
77 53 210 190 264 275 43 66 94 204 114 309 8 44 10 1223 8 4500 l-3 4440 -32
93 c-42 120 -73 181 -134 264 -114 153 -310 284 -495 332 -56 15 -682 16
-6675 19 -3638 1 -6627 1 -6644 -1z m13214 -481 c170 -53 275 -179 301 -362 6
-38 10 -1468 10 -3596 l0 -3533 -6910 0 -6910 0 0 3533 c0 2135 4 3558 10
3597 25 179 131 307 298 361 55 17 282 18 6599 18 6393 1 6543 1 6602 -18z
m309 -8513 c-3 -559 -3 -564 -26 -628 -49 -138 -123 -211 -264 -262 l-63 -23
-6555 0 -6555 0 -63 23 c-138 50 -207 117 -263 257 l-24 60 -3 568 -3 567
6911 0 6911 0 -3 -562z m-6088 -1888 l0 -510 -820 0 -820 0 0 510 0 510 820 0
820 0 0 -510z m1824 -1008 c95 -27 286 -106 312 -130 10 -9 45 -37 78 -61 132
-98 284 -290 342 -431 35 -86 63 -177 56 -184 -7 -8 -6857 -8 -6864 0 -12 11
72 241 100 275 7 8 34 48 61 89 57 86 156 190 239 252 31 24 63 49 71 56 37
36 242 116 358 142 85 18 164 19 2628 17 l2540 -2 79 -23z"/>
</g>
</svg>
